# xmcd CD database file
#
# Track frame offsets:
#	151
#	18205
#	50348
#	72256
#	95525
#	123882
#	140264
#	167062
#	208669
#
# Disc length: 3152 seconds
#
# Revision: 0
# Processed by: cddbd v1.5.1PL2 Copyright (c) Steve Scherf et al.
# Submitted via: CDex 1.51
#
DISCID=740c4e09
DTITLE=BILL EVANS TRIO - LIVE IN ROME 1979
DYEAR=1969
DGENRE=Jazz
TTITLE0=RE: PERSON I KNOW
TTITLE1=LAURIE
TTITLE2=VERY EARLY
TTITLE3=THE PEACOCKS
TTITLE4=ON GREEN DOLPHIN STREET
TTITLE5=MORNING GLORY
TTITLE6=SOLAR
TTITLE7=MY ROMANCE
TTITLE8=SO WHAT
EXTD=YEAR: 1969
EXTT0=
EXTT1=
EXTT2=
EXTT3=
EXTT4=
EXTT5=
EXTT6=
EXTT7=
EXTT8=
PLAYORDER=
